<?xml version="1.0" encoding="UTF-8"?>
<svg version="1.1" xmlns="http://www.w3.org/2000/svg" width="512" height="512">
<path d="M0 0 C62.37 0 124.74 0 189 0 C192.3 6.93 195.6 13.86 199 21 C205.80970469 31.43188803 212.91066231 40.71454428 221.59912109 49.56835938 C222.92218485 50.92047611 224.22167523 52.29554397 225.51953125 53.671875 C255.22278482 84.57477532 297.88801368 99.21231202 339.9140625 101.18359375 C382.82304608 101.96459238 424.99905164 85.68049049 455.97265625 55.984375 C456.64167969 55.32953125 457.31070312 54.6746875 458 54 C459.44110246 58.32330738 457.50018794 61.12517897 455.6875 65.0625 C455.32430664 65.86034912 454.96111328 66.65819824 454.58691406 67.48022461 C445.54440929 86.9912854 434.05626364 104.71340671 420 121 C419.01386719 122.15242188 419.01386719 122.15242188 418.0078125 123.328125 C406.76548637 136.1401344 394.73253687 147.90126715 381 158 C379.89425275 158.83556908 378.7887832 159.67150577 377.68359375 160.5078125 C356.956305 175.96939657 333.59380625 187.22592377 309 195 C307.88141602 195.35553955 307.88141602 195.35553955 306.74023438 195.71826172 C246.46608197 214.51703454 180.3568885 206.95054514 124.53564453 178.33300781 C104.79465372 167.95501726 87.11650409 154.35708767 71 139 C70.39961914 138.42830078 69.79923828 137.85660156 69.18066406 137.26757812 C60.82472708 129.25243568 53.13881779 121.02343852 46.25878906 111.703125 C45.02930604 110.03965069 43.77783788 108.39472448 42.5234375 106.75 C19.53780157 76.12223254 4.22685259 38.04167334 0 0 Z " fill="#000000" transform="translate(19,264)"/>
<path d="M0 0 C168.96 0 337.92 0 512 0 C512 10.23 512 20.46 512 31 C480.98 31 449.96 31 418 31 C414.47129951 71.0956384 414.47129951 71.0956384 429 86 C430.66390025 88.1108833 432.31449394 90.2325146 433.9375 92.375 C434.77409128 93.47315044 435.61135491 94.57078893 436.44921875 95.66796875 C437.07836182 96.49240479 437.07836182 96.49240479 437.72021484 97.33349609 C439.8730438 100.13685558 442.06164044 102.91184525 444.25 105.6875 C448.52124802 111.10861113 452.76633335 116.54949171 457 122 C461.21630776 127.4268459 465.44014124 132.847415 469.6875 138.25 C470.12239746 138.80405518 470.55729492 139.35811035 471.00537109 139.92895508 C473.35485171 142.91940201 475.71619817 145.8997836 478.08984375 148.87109375 C478.59749268 149.50950195 479.1051416 150.14791016 479.62817383 150.80566406 C480.60238237 152.03045601 481.57991878 153.25261073 482.5612793 154.47167969 C484.551477 156.97918907 485.97851163 158.9355349 487 162 C495.25 162 503.5 162 512 162 C512 172.23 512 182.46 512 193 C439.73 193 367.46 193 293 193 C293 182.77 293 172.54 293 162 C297.16625 162.20625 301.3325 162.4125 305.625 162.625 C315.93487845 162.61174878 315.93487845 162.61174878 324.48828125 157.48828125 C327.59574977 153.73464726 330.12046713 149.64339419 332.55419922 145.42919922 C334.75464258 141.73206794 337.36840654 138.39625651 340 135 C340.98106345 133.6889172 341.96021419 132.37640108 342.9375 131.0625 C346.81687414 125.89000115 350.80768704 120.80501178 354.7890625 115.7109375 C357.57459344 112.14005863 360.3451525 108.56062999 363.0625 104.9375 C363.55065186 104.28749023 364.03880371 103.63748047 364.54174805 102.96777344 C365.52014738 101.64751584 366.48507974 100.31717918 367.43676758 98.97753906 C369.98949566 95.43253466 372.5335343 92.43001642 375.82421875 89.546875 C393.34194884 72.33025858 386.37380592 58.55253951 387 31 C300.54 31 214.08 31 125 31 C121.49046399 72.47288559 121.49046399 72.47288559 138 90 C139.97882617 92.59399317 141.94282989 95.18558354 143.875 97.8125 C148.1752459 103.60173479 152.55797652 109.31887936 157 115 C161.98426658 121.37767335 166.88886129 127.80730913 171.72900391 134.29492188 C175.65123111 139.54920133 179.63543029 144.75230855 183.6484375 149.9375 C186 153 186 153 187.13427734 155.1171875 C188.57386141 157.57163193 189.77120876 159.21483674 192 161 C196.63859345 162.12633271 201.12119599 162.07236139 205.875 162 C210.20625 162 214.5375 162 219 162 C219 172.23 219 182.46 219 193 C146.73 193 74.46 193 0 193 C0 182.77 0 172.54 0 162 C8.25 162 16.5 162 25 162 C25.99 160.02 25.99 160.02 27 158 C28.61507565 155.84086889 30.25136263 153.72690926 31.9375 151.625 C32.94017827 150.362038 33.94278042 149.09901555 34.9453125 147.8359375 C35.45610352 147.19495117 35.96689453 146.55396484 36.49316406 145.89355469 C38.77837541 143.02186006 41.04599765 140.1364685 43.3125 137.25 C43.75779053 136.68361816 44.20308105 136.11723633 44.66186523 135.53369141 C48.45758281 130.70180765 52.23014053 125.85207177 56 121 C61.53001576 113.88248446 67.08423393 106.78471181 72.66015625 99.703125 C74.05634451 97.9283784 75.45031762 96.15191104 76.84375 94.375 C77.31981689 93.76817383 77.79588379 93.16134766 78.28637695 92.53613281 C79.17326792 91.40553613 80.05986166 90.27470617 80.94604492 89.14355469 C84.93004284 84.06750825 88.96828295 79.03964631 93 74 C93.33 59.81 93.66 45.62 94 31 C62.98 31 31.96 31 0 31 C0 20.77 0 10.54 0 0 Z M108 105 C106.57170552 106.47868211 106.57170552 106.47868211 105.12890625 108.4453125 C104.56042969 109.18523437 103.99195313 109.92515625 103.40625 110.6875 C102.49359375 111.8940625 102.49359375 111.8940625 101.5625 113.125 C100.28288118 114.79452312 99.00293005 116.46379159 97.72265625 118.1328125 C96.77156982 119.37853027 96.77156982 119.37853027 95.80126953 120.64941406 C93.39560269 123.78871473 90.95172557 126.89663766 88.5 130 C84.19556193 135.46919688 79.90539656 140.94946805 75.625 146.4375 C75.04169922 147.18322266 74.45839844 147.92894531 73.85742188 148.69726562 C73.29861328 149.41462891 72.73980469 150.13199219 72.1640625 150.87109375 C71.67373535 151.49943115 71.1834082 152.12776855 70.67822266 152.77514648 C68.39218918 155.80578702 66.20646556 158.91094822 64 162 C93.04 162 122.08 162 152 162 C150.26383235 158.52766469 148.51989055 155.88052394 146.1875 152.8125 C145.79788086 152.29840576 145.40826172 151.78431152 145.00683594 151.25463867 C143.67504421 149.50015008 142.33787689 147.74985215 141 146 C139.99088046 144.67708712 138.98176607 143.3541703 137.97265625 142.03125 C133.47478617 136.14050891 128.96592917 130.25821135 124.453125 124.37890625 C123.8746582 123.62440186 123.29619141 122.86989746 122.70019531 122.0925293 C121.60158455 120.65963419 120.50204003 119.22745431 119.40136719 117.79614258 C116.9368298 114.5806545 114.54292784 111.34831337 112.25 108.0078125 C111.5075 107.01523438 110.765 106.02265625 110 105 C109.34 105 108.68 105 108 105 Z M402 105 C400.16885682 107.25513271 398.45025443 109.52349131 396.75 111.875 C395.66299253 113.3526923 394.57438915 114.82921167 393.484375 116.3046875 C392.91396484 117.07780273 392.34355469 117.85091797 391.75585938 118.64746094 C388.89675351 122.47815394 385.94817675 126.23770121 383 130 C377.88834352 136.53706304 372.85887584 143.12872543 367.90625 149.78710938 C367.44992187 150.40005859 366.99359375 151.01300781 366.5234375 151.64453125 C365.88293457 152.50618896 365.88293457 152.50618896 365.22949219 153.38525391 C364.07977756 154.89522463 362.87365984 156.36177915 361.6640625 157.82421875 C359.79749899 159.80824181 359.79749899 159.80824181 360 162 C389.04 162 418.08 162 448 162 C439.12729928 150.16973237 430.23194412 138.40167463 420.83056641 126.98632812 C416.28007552 121.42877274 411.98015093 115.7018813 407.78100586 109.87475586 C406.56655466 108.21526382 405.28903896 106.60224346 404 105 C403.34 105 402.68 105 402 105 Z " fill="#000000" transform="translate(0,42)"/>
<path d="M0 0 C58.74 0 117.48 0 178 0 C166.8800316 27.79992099 139.87848549 50.18522018 113 62 C77.90192834 76.07018172 40.29218382 76.71932767 5.25 62.25 C-5.7139352 57.54940137 -15.95259535 51.81553412 -25 44 C-23.30257781 40.17613683 -20.8476623 36.96864517 -18.375 33.625 C-10.62282109 22.92932987 -5.12538333 12.30091998 0 0 Z " fill="#000000" transform="translate(304,264)"/>
</svg>
